<svg xmlns="http://www.w3.org/2000/svg" viewBox="0 0 1200 630" fill="none">
  <rect width="1200" height="630" fill="#FFFFFF"/>
  <g transform="translate(300, 0) scale(15)">
    <path d="M4.98146 28.3782C2.51494 22.6147 2.17507 17.9062 4.95233 12.2794C9.70087 2.69634 21.8198 0.586302 31.4529 5.71486C40.5518 10.5601 41.7656 21.4229 33.1814 24.0409C27.1607 25.8774 17.8579 23.9628 17.2655 19.0394C16.9839 16.6753 18.1977 14.2332 21.0333 13.6373C23.3056 13.1684 26.0731 13.8913 26.8014 15.5129C28.5299 19.3813 20.9265 19.6548 20.9265 19.6548C20.9265 19.6548 27.083 22.1751 30.4818 18.8831C32.7832 16.646 30.9479 13.7252 28.0735 11.8887C21.781 7.88351 11.9829 12.3673 9.66203 19.7818C6.89447 28.6224 15.4593 38.9773 15.4593 38.9773C15.4593 38.9773 7.2829 33.7119 4.99117 28.3587" fill="#EA0029"/>
    <path d="M15.0707 17.5936C15.3911 16.8219 15.7601 16.099 16.1874 15.4054C14.255 22.3802 18.4889 30.0877 25.8496 32.7937C27.0149 33.2235 28.1996 33.5068 29.3649 33.6435C29.6853 32.0415 31.171 30.8692 33.0646 30.8692C35.3175 30.8692 37.2985 32.5397 37.4927 34.6009C37.6287 36.0857 36.7936 37.3654 35.4729 37.9613C35.1913 38.1957 34.7834 38.3814 34.2105 38.4888C31.1031 39.1238 27.7432 38.9089 24.5289 37.6878C16.0709 34.4641 11.8273 25.4671 15.061 17.5838" fill="#EA0029"/>
  </g>
</svg>
